<svg id="visual" viewBox="0 0 960 540" width="960" height="540" xmlns="http://www.w3.org/2000/svg" xmlns:xlink="http://www.w3.org/1999/xlink" version="1.1"><rect x="0" y="0" width="960" height="540" fill="#fff"></rect><defs><linearGradient id="grad1_0" x1="43.8%" y1="0%" x2="100%" y2="100%"><stop offset="14.444444444444446%" stop-color="#ffffff" stop-opacity="1"></stop><stop offset="85.55555555555554%" stop-color="#ffffff" stop-opacity="1"></stop></linearGradient></defs><defs><linearGradient id="grad2_0" x1="0%" y1="0%" x2="56.3%" y2="100%"><stop offset="14.444444444444446%" stop-color="#ffffff" stop-opacity="1"></stop><stop offset="85.55555555555554%" stop-color="#ffffff" stop-opacity="1"></stop></linearGradient></defs><g transform="translate(960, 0)"><path d="M0 324C-35.2 301.4 -70.4 278.8 -110.2 266.1C-150.1 253.3 -194.6 250.4 -228.4 228.4C-262.2 206.4 -285.2 165.2 -299.3 124C-313.5 82.7 -318.7 41.4 -324 0L0 0Z" fill="#ffd43b"></path></g><g transform="translate(0, 540)"><path d="M0 -324C45.3 -322.1 90.5 -320.2 124 -299.3C157.5 -278.4 179.2 -238.5 207.2 -207.2C235.2 -175.9 269.6 -153.3 290.1 -120.2C310.6 -87.1 317.3 -43.5 324 0L0 0Z" fill="#ffd43b"></path></g></svg>