<svg id="visual" viewBox="0 0 450 900" width="450" height="900" xmlns="http://www.w3.org/2000/svg" xmlns:xlink="http://www.w3.org/1999/xlink" version="1.1"><rect x="0" y="0" width="450" height="900" fill="#fff"></rect><defs><linearGradient id="grad1_0" x1="0%" y1="0%" x2="100%" y2="100%"><stop offset="30%" stop-color="#ffffff" stop-opacity="1"></stop><stop offset="70%" stop-color="#ffffff" stop-opacity="1"></stop></linearGradient></defs><defs><linearGradient id="grad2_0" x1="0%" y1="0%" x2="100%" y2="100%"><stop offset="30%" stop-color="#ffffff" stop-opacity="1"></stop><stop offset="70%" stop-color="#ffffff" stop-opacity="1"></stop></linearGradient></defs><g transform="translate(450, 0)"><path d="M0 270C-35.9 267 -71.7 263.9 -103.3 249.4C-134.9 234.9 -162.2 209 -181 181C-199.8 153.1 -210.2 123.1 -223.6 92.6C-237 62.1 -253.5 31.1 -270 0L0 0Z" fill="#ffd43b"></path></g><g transform="translate(0, 900)"><path d="M0 -270C29.4 -252 58.9 -234 92.6 -223.6C126.3 -213.2 164.3 -210.3 190.9 -190.9C217.5 -171.5 232.6 -135.6 243.9 -101C255.2 -66.5 262.6 -33.2 270 0L0 0Z" fill="#ffd43b"></path></g></svg>