<svg id="visual" viewBox="0 0 675 900" width="675" height="900" xmlns="http://www.w3.org/2000/svg" xmlns:xlink="http://www.w3.org/1999/xlink" version="1.1"><rect x="0" y="0" width="675" height="900" fill="#fff"></rect><defs><linearGradient id="grad1_0" x1="0%" y1="0%" x2="100%" y2="100%"><stop offset="30%" stop-color="#ffffff" stop-opacity="1"></stop><stop offset="70%" stop-color="#ffffff" stop-opacity="1"></stop></linearGradient></defs><defs><linearGradient id="grad2_0" x1="0%" y1="0%" x2="100%" y2="100%"><stop offset="30%" stop-color="#ffffff" stop-opacity="1"></stop><stop offset="70%" stop-color="#ffffff" stop-opacity="1"></stop></linearGradient></defs><g transform="translate(675, 0)"><path d="M0 337.5C-37.1 306.6 -74.2 275.7 -104.5 252.2C-134.7 228.7 -158.1 212.6 -195.9 195.9C-233.6 179.2 -285.8 161.9 -311.8 129.2C-337.8 96.4 -337.7 48.2 -337.5 0L0 0Z" fill="#ffd43b"></path></g><g transform="translate(0, 900)"><path d="M0 -337.5C43.6 -322.4 87.1 -307.2 116.7 -281.8C146.3 -256.4 161.9 -220.7 196.6 -196.6C231.3 -172.5 285.1 -160 311.8 -129.2C338.5 -98.3 338 -49.2 337.5 0L0 0Z" fill="#ffd43b"></path></g></svg>