<svg id="visual" viewBox="0 0 960 540" width="960" height="540" xmlns="http://www.w3.org/2000/svg" xmlns:xlink="http://www.w3.org/1999/xlink" version="1.1"><rect x="0" y="0" width="960" height="540" fill="#fff"></rect><defs><linearGradient id="grad1_0" x1="43.8%" y1="0%" x2="100%" y2="100%"><stop offset="14.444444444444446%" stop-color="#ffffff" stop-opacity="1"></stop><stop offset="85.55555555555554%" stop-color="#ffffff" stop-opacity="1"></stop></linearGradient></defs><defs><linearGradient id="grad2_0" x1="0%" y1="0%" x2="56.3%" y2="100%"><stop offset="14.444444444444446%" stop-color="#ffffff" stop-opacity="1"></stop><stop offset="85.55555555555554%" stop-color="#ffffff" stop-opacity="1"></stop></linearGradient></defs><g transform="translate(960, 0)"><path d="M0 297C-40 290.1 -80 283.3 -109.1 263.3C-138.1 243.3 -156.3 210.3 -185.3 185.3C-214.2 160.2 -254 143.2 -274.4 113.7C-294.8 84.1 -295.9 42.1 -297 0L0 0Z" fill="#ffd43b"></path></g><g transform="translate(0, 540)"><path d="M0 -297C34.8 -285.5 69.7 -274 108.7 -262.4C147.7 -250.7 190.9 -238.9 210 -210C229.1 -181.1 224.2 -135.1 234.7 -97.2C245.2 -59.3 271.1 -29.7 297 0L0 0Z" fill="#ffd43b"></path></g></svg>