<svg id="visual" viewBox="0 0 900 600" width="900" height="600" xmlns="http://www.w3.org/2000/svg" xmlns:xlink="http://www.w3.org/1999/xlink" version="1.1"><rect x="0" y="0" width="900" height="600" fill="#183153"></rect><path d="M0 372L21.5 376.5C43 381 86 390 128.8 398C171.7 406 214.3 413 257.2 419C300 425 343 430 385.8 426.7C428.7 423.3 471.3 411.7 514.2 402.2C557 392.7 600 385.3 642.8 379.3C685.7 373.3 728.3 368.7 771.2 378C814 387.3 857 410.7 878.5 422.3L900 434L900 601L878.5 601C857 601 814 601 771.2 601C728.3 601 685.7 601 642.8 601C600 601 557 601 514.2 601C471.3 601 428.7 601 385.8 601C343 601 300 601 257.2 601C214.3 601 171.7 601 128.8 601C86 601 43 601 21.5 601L0 601Z" fill="#fa7268"></path><path d="M0 410L21.5 417.8C43 425.7 86 441.3 128.8 441C171.7 440.7 214.3 424.3 257.2 424.7C300 425 343 442 385.8 441.7C428.7 441.3 471.3 423.7 514.2 417.5C557 411.3 600 416.7 642.8 425.7C685.7 434.7 728.3 447.3 771.2 456.8C814 466.3 857 472.7 878.5 475.8L900 479L900 601L878.5 601C857 601 814 601 771.2 601C728.3 601 685.7 601 642.8 601C600 601 557 601 514.2 601C471.3 601 428.7 601 385.8 601C343 601 300 601 257.2 601C214.3 601 171.7 601 128.8 601C86 601 43 601 21.5 601L0 601Z" fill="#ff8759"></path><path d="M0 439L21.5 447.8C43 456.7 86 474.3 128.8 481.5C171.7 488.7 214.3 485.3 257.2 484C300 482.7 343 483.3 385.8 488C428.7 492.7 471.3 501.3 514.2 497.8C557 494.3 600 478.7 642.8 478.3C685.7 478 728.3 493 771.2 490.3C814 487.7 857 467.3 878.5 457.2L900 447L900 601L878.5 601C857 601 814 601 771.2 601C728.3 601 685.7 601 642.8 601C600 601 557 601 514.2 601C471.3 601 428.7 601 385.8 601C343 601 300 601 257.2 601C214.3 601 171.7 601 128.8 601C86 601 43 601 21.5 601L0 601Z" fill="#ff9f4c"></path><path d="M0 483L21.5 484.3C43 485.7 86 488.3 128.8 492.5C171.7 496.7 214.3 502.3 257.2 509.8C300 517.3 343 526.7 385.8 527.5C428.7 528.3 471.3 520.7 514.2 516.3C557 512 600 511 642.8 513C685.7 515 728.3 520 771.2 516.3C814 512.7 857 500.3 878.5 494.2L900 488L900 601L878.5 601C857 601 814 601 771.2 601C728.3 601 685.7 601 642.8 601C600 601 557 601 514.2 601C471.3 601 428.7 601 385.8 601C343 601 300 601 257.2 601C214.3 601 171.7 601 128.8 601C86 601 43 601 21.5 601L0 601Z" fill="#ffb941"></path><path d="M0 524L21.5 531.8C43 539.7 86 555.3 128.8 560.5C171.7 565.7 214.3 560.3 257.2 557.2C300 554 343 553 385.8 555.8C428.7 558.7 471.3 565.3 514.2 568C557 570.7 600 569.3 642.8 564.3C685.7 559.3 728.3 550.7 771.2 547.2C814 543.7 857 545.3 878.5 546.2L900 547L900 601L878.5 601C857 601 814 601 771.2 601C728.3 601 685.7 601 642.8 601C600 601 557 601 514.2 601C471.3 601 428.7 601 385.8 601C343 601 300 601 257.2 601C214.3 601 171.7 601 128.8 601C86 601 43 601 21.5 601L0 601Z" fill="#ffd43b"></path></svg>