<svg id="visual" viewBox="0 0 900 600" width="900" height="600" xmlns="http://www.w3.org/2000/svg" xmlns:xlink="http://www.w3.org/1999/xlink" version="1.1"><rect x="0" y="0" width="900" height="600" fill="#fff"></rect><path d="M222 0L206.8 11.2C191.7 22.3 161.3 44.7 160.7 66.8C160 89 189 111 216.7 133.2C244.3 155.3 270.7 177.7 259.3 200C248 222.3 199 244.7 185.2 266.8C171.3 289 192.7 311 188.5 333.2C184.3 355.3 154.7 377.7 145.3 400C136 422.3 147 444.7 177 466.8C207 489 256 511 279.3 533.2C302.7 555.3 300.3 577.7 299.2 588.8L298 600L0 600L0 588.8C0 577.7 0 555.3 0 533.2C0 511 0 489 0 466.8C0 444.7 0 422.3 0 400C0 377.7 0 355.3 0 333.2C0 311 0 289 0 266.8C0 244.7 0 222.3 0 200C0 177.7 0 155.3 0 133.2C0 111 0 89 0 66.8C0 44.7 0 22.3 0 11.2L0 0Z" fill="#ffd43b" stroke-linecap="round" stroke-linejoin="miter"></path></svg>